<svg width="150" height="36" viewBox="0 0 150 36" fill="none" xmlns="http://www.w3.org/2000/svg">
<g id="Group 9931">
<g id="Group 9835">
<path id="Vector" d="M20.5047 0H14.8098V35.304H20.5047V0Z" fill="#FF9BBD"/>
<path id="Vector_2" d="M35.3057 20.503V14.8081L0.00168991 14.8081V20.503H35.3057Z" fill="#FF9BBD"/>
<path id="Vector_3" d="M17.6536 21.6841L13.6267 17.6572L1.40411e-05 31.2839L4.02693 35.3108L17.6536 21.6841Z" fill="white"/>
<path id="Vector_4" d="M32.1463 7.18414L28.1194 3.15723L13.6267 17.6499L17.6537 21.6768L32.1463 7.18414Z" fill="#FF9BBD"/>
<path id="Vector_5" d="M28.1176 32.1461L32.1445 28.1191L7.18085 3.15546L3.15394 7.18238L28.1176 32.1461Z" fill="#FF9BBD"/>
<path id="Vector_6" d="M17.6607 13.621L13.6338 17.6479L17.6607 21.6749L21.6876 17.6479L17.6607 13.621Z" fill="#4822A5"/>
</g>
<g id="vizard">
<path d="M57.0529 30.6565H51.646L43.4697 10.1244H48.6129L51.4262 18.0751C52.3933 20.8273 53.4483 23.7542 54.3275 26.3753H54.4154C55.3385 23.7542 56.3496 20.8273 57.3167 18.0751L60.174 10.1244H65.1413L57.0529 30.6565Z" fill="white"/>
<path d="M71.412 7.37226H66.2688V3.87744H71.412V7.37226ZM71.2361 30.6565H66.4886V10.1244H71.2361V30.6565Z" fill="white"/>
<path d="M86.2219 26.4627H92.9476V30.6565H74.4849V26.4627L86.9252 14.2745L86.8813 14.2308C84.5954 14.2745 82.0898 14.3182 79.8479 14.3182H74.8366V10.1244H92.7278V14.3182L80.2435 26.5064V26.5501C82.2217 26.5064 84.3756 26.4627 86.2219 26.4627Z" fill="white"/>
<path d="M103.513 27.249C106.766 27.249 108.876 25.4143 108.876 22.9242V22.2689H103.425C101.139 22.2689 99.9081 23.0989 99.9081 24.4969C99.9081 25.9385 100.831 27.249 103.513 27.249ZM108.876 30.6565V25.5016H108.788C107.821 29.1712 105.315 31.0933 101.754 31.0933C97.93 31.0933 95.2485 29.1712 95.2485 25.2395C95.2485 21.4826 97.5344 18.7741 102.721 18.7741H108.876V17.9441C108.876 15.1482 107.733 13.6192 104.875 13.6192C102.326 13.6192 100.875 14.7551 100.392 17.7257L95.864 17.1141C96.4794 12.5271 99.2048 9.68758 105.051 9.68758C111.03 9.68758 113.579 12.6582 113.579 17.9004V30.6565H108.876Z" fill="white"/>
<path d="M121.724 30.6565H116.976V10.1244H121.724V16.852H121.812C122.735 11.5224 124.581 10.1244 127.702 10.1244H128.889V15.4103H126.867C123.174 15.4103 121.724 16.6772 121.724 20.2594V30.6565Z" fill="white"/>
<path d="M139.758 26.9432C143.143 26.9432 145.253 24.6716 145.253 20.6089V20.2594C145.253 16.3277 143.143 13.794 139.758 13.794C136.153 13.794 134.395 16.2404 134.395 20.4778C134.395 24.5842 136.065 26.9432 139.758 26.9432ZM145.253 30.6565V24.8463H145.165C144.242 28.9964 141.824 31.2244 137.824 31.2244C132.461 31.2244 129.691 27.118 129.691 20.4778C129.691 13.6629 132.637 9.55652 137.824 9.60021C141.956 9.55652 144.286 11.7845 145.209 16.0219H145.253V3.87744H150V30.6565H145.253Z" fill="white"/>
</g>
</g>
</svg>
