<svg width="19" height="18" viewBox="0 0 19 18" fill="none" xmlns="http://www.w3.org/2000/svg">
<path id="Star 13" d="M8.53138 0.985261C8.92266 0.355946 9.83858 0.355945 10.2299 0.98526L12.6438 4.86775C12.7815 5.08917 13.0002 5.24807 13.2533 5.31058L17.6917 6.40662C18.4111 6.58428 18.6942 7.45537 18.2166 8.02197L15.2701 11.5175C15.102 11.7169 15.0185 11.974 15.0372 12.234L15.3664 16.7939C15.4197 17.533 14.6788 18.0714 13.9923 17.7923L9.75731 16.0701C9.51578 15.9719 9.24545 15.9719 9.00393 16.0701L4.76893 17.7923C4.08248 18.0714 3.34149 17.533 3.39484 16.7939L3.72399 12.234C3.74276 11.974 3.65922 11.7169 3.49118 11.5175L0.544659 8.02197C0.0670573 7.45537 0.35009 6.58428 1.06952 6.40662L5.50794 5.31058C5.76106 5.24807 5.97976 5.08917 6.11743 4.86776L8.53138 0.985261Z" fill="#FE9E2C"/>
</svg>
